<?xml version="1.0" standalone="no"?>
<!DOCTYPE svg PUBLIC "-//W3C//DTD SVG 1.1//EN" "http://www.w3.org/Graphics/SVG/1.1/DTD/svg11.dtd" >
<svg xmlns="http://www.w3.org/2000/svg">
<metadata></metadata>
<defs>
<font id="yourmovefontregular" horiz-adv-x="580" >
<font-face units-per-em="1000" ascent="750" descent="-250" />
<missing-glyph horiz-adv-x="500" />
<glyph unicode="&#xd;" horiz-adv-x="500" />
<glyph unicode=" "  horiz-adv-x="500" />
<glyph unicode="&#x09;" horiz-adv-x="500" />
<glyph unicode="&#xa0;" horiz-adv-x="500" />
<glyph unicode="!" horiz-adv-x="255" d="M95 127q36 0 53.5 -23t17.5 -51t-17.5 -51t-53.5 -23t-53.5 23t-17.5 51t17.5 51t53.5 23zM107 668q4 23 18 35.5t31 16t35.5 -1.5t32.5 -17t21.5 -30.5t3.5 -41.5l-32 -170t-21 -171q-1 -24 -13 -39.5t-29 -23.5t-36 -8t-35 8t-26 23.5t-8 39.5q6 96 23 190.5t35 189.5z " />
<glyph unicode="," horiz-adv-x="211" d="M108 141q30 0 52 -21.5t21 -51.5q0 -89 -37 -166q-6 -14 -18.5 -22.5t-26.5 -12t-29 -1.5t-27 9q-28 17 -34 45.5t8 55.5q8 19 12.5 43.5t4.5 48.5q1 30 22 51.5t52 21.5z" />
<glyph unicode="-" horiz-adv-x="438" d="M345 408q36 0 53.5 -23t17.5 -51t-17.5 -51t-53.5 -23q-63 0 -124.5 0.5t-124.5 -0.5q-36 0 -53.5 23t-17.5 50.5t17.5 51t53.5 23.5h249v0z" />
<glyph unicode="." horiz-adv-x="183" d="M90 146q36 0 53.5 -23t17.5 -51t-17.5 -51t-53.5 -23t-53.5 23t-17.5 51t17.5 51t53.5 23z" />
<glyph unicode="0" horiz-adv-x="507" d="M265 705q71 3 120.5 -27t78.5 -81.5t38.5 -118t1 -135.5t-33.5 -134.5t-65.5 -115t-95.5 -77.5t-122 -21q-57 6 -95 37t-60 78.5t-29 107t0 121.5t26.5 122.5t49.5 110.5t69.5 84.5t86.5 44.5q10 3 19 3q2 0 5 0.5t6 0.5zM196 156q20 -11 41 -0.5t40.5 36t35.5 61.5 t26.5 75t13.5 78t-4.5 70t-26.5 50.5t-52 19.5q-26 -8 -43.5 -30.5t-29 -50t-18 -57.5t-9.5 -53q-2 -15 -4.5 -44t-1.5 -60.5t8 -58t24 -36.5z" />
<glyph unicode="1" horiz-adv-x="349" d="M198 709q16 15 34 19t34.5 -0.5t30 -16.5t21.5 -27q11 -12 15 -28.5t-2 -36.5q-21 -69 -44.5 -138t-44 -138.5t-36 -140.5t-20.5 -143q-3 -36 -27 -53.5t-51.5 -17.5t-49.5 17.5t-19 53.5q8 107 33 208.5t57 203.5q-23 -16 -49 -16t-47 21q-10 10 -15.5 24t-6 28.5 t4.5 28.5t17 23q41 33 84 62.5t81 66.5z" />
<glyph unicode="2" horiz-adv-x="530" d="M371 324q-28 -19 -58.5 -36.5t-59 -37t-52 -43t-37.5 -53.5q59 9 117 14t118 6q36 0 53.5 -22.5t17.5 -50.5t-17.5 -51t-53.5 -23q-77 -1 -152 -9.5t-150 -27.5q-21 -5 -38.5 0t-29.5 17t-18 28.5t-6 33.5q-3 12 -2 25q4 77 33 128.5t72 90.5t96 73t106 75q10 7 28 27 t31 42t13 40t-27 23q-26 5 -51 -0.5t-46 -19t-37.5 -33t-26.5 -42.5q-14 -33 -40.5 -37.5t-50.5 9.5t-37 42t1 60q18 42 56.5 77t87 58t100.5 31t97 -3.5t77.5 -45.5t40.5 -95q6 -42 -5.5 -81.5t-34 -74t-52.5 -63.5t-63 -51z" />
<glyph unicode="3" horiz-adv-x="519" d="M438 401q25 -14 42.5 -37.5t23.5 -58.5q11 -66 -5 -131t-62 -116q-33 -36 -75.5 -58.5t-87.5 -30t-90 -0.5t-83 29t-65.5 59.5t-37.5 91.5q-4 23 3.5 41.5t22 31t33 17.5t35.5 1.5t30.5 -16t17.5 -35.5q6 -31 24.5 -50.5t43.5 -26.5t52.5 -0.5t50.5 28.5t37.5 49.5 t13.5 59.5q0 28 -6.5 31t-33.5 -4q-3 -1 -10 -1q-23 -15 -47.5 -7.5t-40.5 27t-18 47t19 51.5q7 8 20.5 19.5t29 24.5t30.5 28t25.5 29.5t14 28.5t-3.5 26q-13 22 -32.5 25t-38.5 -6t-35 -26.5t-22 -36.5q-11 -33 -39 -44t-54.5 -3.5t-43 30.5t-5.5 57q12 37 36 69t55 56 t67.5 38.5t74 15t73.5 -14.5t66 -49q21 -24 34 -52.5t16 -58t-4 -59.5t-26 -57q-11 -16 -25 -32z" />
<glyph unicode="4" horiz-adv-x="640" d="M566 393q35 3 52.5 -18.5t17.5 -49t-17.5 -52t-52.5 -27.5q-27 -2 -53.5 -5t-52.5 -5q-24 -116 -51 -231q-6 -23 -20 -35.5t-31.5 -16t-36 2t-32.5 17.5t-21 30t-1 41q11 45 21 90l20 90q-56 -4 -110.5 -5t-110.5 2q-24 1 -41.5 14t-25.5 32t-5 40.5t20 39.5 q87 97 174 191t187 177q17 14 39.5 17.5t42.5 -3.5t33 -23.5t11 -42.5q-5 -70 -14 -139t-20 -138q20 2 39 3.5t39 3.5zM252 368q22 2 43 2.5t42 2.5q5 26 9 51t8 51q-26 -26 -51 -52.5t-51 -54.5z" />
<glyph unicode="5" horiz-adv-x="530" d="M415 721q20 12 39 11t34 -11t24.5 -26t11 -34.5t-6.5 -36.5t-28 -30q-58 -35 -116.5 -38t-116.5 17l-8 -58t-10 -58q41 2 80.5 -7.5t71.5 -33.5q27 -20 49.5 -47t36 -58t15.5 -65t-12 -68q-25 -62 -76.5 -104t-114.5 -60.5t-130.5 -12t-123.5 40.5q-20 12 -28 29.5 t-6.5 36t11 35t24.5 26.5t34 11t40 -11q24 -15 54.5 -20t62 -0.5t59 18.5t45.5 37q17 21 16 38.5t-12.5 30t-31.5 20.5t-42 11.5t-43 2t-35 -7.5q-24 -11 -46 -6t-37.5 18.5t-23.5 33t-4 38.5q0 6 0.5 12t2.5 12q20 66 29.5 134t19.5 136q3 20 19 33.5t36 17.5 q16 12 36 14.5t42 -9.5q20 -11 39.5 -19t39 -11t39.5 1t41 17z" />
<glyph unicode="6" horiz-adv-x="435" d="M221 445q35 3 67 -4t58.5 -25t45.5 -48t27 -73q9 -44 2.5 -90.5t-27 -86.5t-55 -69.5t-81.5 -38.5q-66 -13 -116 11t-81.5 69t-43 103.5t-1.5 114.5q11 62 36.5 126t64 120.5t89 100.5t112.5 67q33 13 56 -3t30 -42.5t-3.5 -55t-43.5 -41.5q-42 -15 -76 -52.5t-60 -82.5z M225 154q15 1 27.5 16t19.5 35.5t7 42t-10 36t-31.5 16.5t-57.5 -17q-5 -2 -9 -3.5t-9 -3.5q-4 -23 -4 -45t6.5 -40t21 -28.5t39.5 -8.5z" />
<glyph unicode="7" horiz-adv-x="455" d="M334 695q23 15 47.5 9.5t41.5 -22.5t22.5 -41t-10.5 -47q-40 -59 -67 -125t-47 -134.5t-37.5 -138.5t-37.5 -137q-10 -34 -37.5 -45t-54 -3.5t-43.5 30.5t-7 57q30 101 55.5 204.5t64.5 202.5q-57 -2 -109 17t-90 69q-14 18 -16 38.5t4.5 38t20 31t30 19t33.5 1t32 -23.5 q21 -27 46.5 -36t52.5 -6.5t54.5 14.5t51.5 28z" />
<glyph unicode="8" horiz-adv-x="475" d="M469 563q1 -48 -18.5 -92.5t-54.5 -77.5q23 -33 33 -74t7.5 -84.5t-16.5 -85.5t-40 -76.5t-62.5 -58.5t-83.5 -31q-67 -10 -115.5 11t-77.5 61.5t-40 93.5t-3 106.5t34 101.5t71 78q-8 17 -12.5 36.5t-5.5 41.5q-2 35 6.5 72.5t27 69t47 54t67.5 28.5q2 0 4 0.5t4 0.5 q8 2 14 2q40 2 78.5 -9t68.5 -33.5t48 -56.5t19 -78zM240 571q-11 -24 -8 -58q0 1 1 -2.5t2.5 -8t2 -8t-0.5 -1.5q2 -4 4 -7t0 -1l4 -3q1 0 2.5 0.5t4.5 0.5q7 1 14.5 3t14.5 4q22 9 32.5 31.5t8.5 41.5q0 -3 -1.5 4.5t-2.5 9.5q-2 3 -4.5 5.5t-0.5 1.5q-11 6 -24.5 8 t-28.5 1q-8 -2 -11 -6t-9 -16zM228 132q17 7 31 23.5t22.5 38t12 44.5t-2 42.5t-19.5 32t-39 12.5h-9q-2 0 -4.5 -0.5t-4.5 -0.5q-26 -1 -44 -19t-26.5 -43.5t-8 -53.5t11 -49t30.5 -30t50 3z" />
<glyph unicode="9" horiz-adv-x="513" d="M238 733q72 2 127 -24.5t88.5 -72t43 -107t-9.5 -128.5q-20 -69 -55.5 -136t-85 -123.5t-111.5 -98t-134 -57.5q-34 -8 -56.5 9.5t-30 43.5t3.5 51.5t45 33.5q68 15 123 60.5t94 103.5q-65 -2 -122 33t-86 110q-19 49 -17.5 101.5t23 96.5t61.5 73t99 31zM204 484 q11 -29 28 -41.5t37.5 -13t42 8.5t42.5 23q4 20 4.5 39.5t-4.5 36t-16.5 28.5t-31.5 17q-29 7 -53.5 5t-39.5 -14.5t-18.5 -34.5t9.5 -54z" />
<glyph unicode=":" horiz-adv-x="174" d="M68 166q36 0 53.5 -23t17.5 -51t-17.5 -51t-53.5 -23t-53.5 23t-17.5 51t17.5 51t53.5 23zM91 408q36 0 53.5 -23t17.5 -50.5t-17.5 -50.5t-53.5 -23t-53.5 23t-17.5 50.5t17.5 50.5t53.5 23z" />
<glyph unicode=";" horiz-adv-x="201" d="M108 391q36 0 53.5 -23t17.5 -50.5t-17.5 -50.5t-53.5 -23t-53.5 23t-17.5 50.5t17.5 50.5t53.5 23zM90 139q30 0 52 -21.5t22 -51.5q-2 -90 -38 -166q-6 -14 -18 -22.5t-26.5 -12t-29.5 -1.5t-27 9q-28 17 -33.5 45.5t7.5 55.5q9 19 13 43.5t4 48.5q1 30 22 51.5 t52 21.5z" />
<glyph unicode="?" horiz-adv-x="393" d="M114 142q36 0 53.5 -23t17.5 -51t-17.5 -51t-53.5 -23t-53.5 23t-17.5 51t17.5 51t53.5 23zM12 622q25 48 70.5 73.5t96 28.5t99 -17.5t79.5 -65.5q33 -48 29 -106t-40 -103q-14 -18 -37 -33.5t-44.5 -32.5t-38 -36t-18.5 -44q-2 -23 -14 -39t-29 -23.5t-36 -8t-35 7.5 t-26 23.5t-8 39.5q4 45 18 83t49 68q11 10 27.5 21t33 23t30.5 25t20 27q8 19 -3.5 29.5t-30 12.5t-38 -5t-27.5 -23q-17 -32 -45 -36t-51.5 10t-35.5 41.5t5 59.5z" />
<glyph unicode="@" horiz-adv-x="782" d="M521 714q82 -19 142 -70t89 -120t23 -148t-54 -152q-22 -33 -49.5 -57t-59 -34.5t-66 -5t-70.5 30.5q-3 2 -5.5 4t-5.5 4q-33 -23 -71 -31t-75.5 -3t-70.5 22.5t-55 45t-29 65t7 82.5q11 33 32 65.5t49.5 59.5t61.5 46t68.5 25.5t70.5 -1t67 -33.5q19 -8 32.5 -25 t9.5 -43q-2 -10 -7 -28.5t-10 -40t-9 -44.5t-3 -42t7.5 -32.5t23.5 -15.5q24 -3 42 17t31 49t19 59t6 47q-1 51 -22.5 90t-56 64.5t-79 36.5t-92.5 7q-58 -5 -113.5 -29.5t-98.5 -64t-69.5 -92t-26.5 -115.5q-1 -76 29.5 -134t81 -90t115.5 -33.5t133 34.5q24 13 45.5 4 t32 -27.5t7 -40.5t-27.5 -35q-67 -36 -134 -44.5t-128 5.5t-113.5 48.5t-89 86t-53.5 117t-9 141.5q10 93 59.5 171t123 130.5t164 73.5t181.5 0zM285 327q-11 -35 -0.5 -54.5t32.5 -25.5t49 0t48 23q4 2 5 3q-1 37 7 75.5t16 74.5q-21 13 -45.5 7t-47 -22.5t-40.5 -39 t-24 -41.5z" />
<glyph unicode="A" horiz-adv-x="566" d="M378 288q-41 -3 -81.5 -5.5t-81.5 -8.5q-20 -57 -36.5 -114t-30.5 -115q-5 -22 -19 -34.5t-30.5 -15.5t-34.5 1.5t-31.5 16t-20 29.5t-1.5 40q25 106 58 210t84 198q12 22 29.5 49t39 54t46 50.5t52.5 39.5t58 20.5t61 -6.5q55 -20 80.5 -63.5t31.5 -100.5t-2.5 -123 t-22.5 -129.5t-28 -120t-18 -95.5q-4 -34 -28.5 -51t-51 -17t-47 17t-16.5 51q7 56 18.5 111t22.5 112zM361 535q-13 -12 -24.5 -25t-21.5 -28q-11 -14 -19.5 -29.5t-17.5 -31.5q32 2 63.5 4t63.5 7q5 35 4.5 68.5t-12.5 56.5q1 -3 -1 -3.5t-7 -2t-12 -5t-16 -11.5z" />
<glyph unicode="B" horiz-adv-x="503" d="M168 694q45 8 98.5 5.5t100.5 -20.5t81 -54t40 -96q7 -59 -16.5 -102t-65.5 -73q2 -2 4 -4.5t4 -5.5q30 -44 30.5 -94t-15.5 -97q-22 -56 -62 -93t-90.5 -54t-107.5 -13.5t-111 27.5q-28 13 -36 36q-20 23 -14 60q29 133 53 265.5t59 263.5q5 17 17.5 31.5t30.5 17.5z M349 516q-2 16 -12.5 25.5t-25 14.5t-31.5 6t-33 0q-9 -34 -16.5 -68t-15.5 -68h2q23 4 47 11.5t43.5 18t31 25.5t10.5 35zM270 283q-17 3 -33 3q-17 -5 -33 -6q-5 -1 -9 -1h-9q-7 -37 -14 -73.5t-15 -73.5q49 -8 87 16.5t55 69.5q13 30 -2 53q-1 1 -7 5q-5 2 -8 3.5 t-12 3.5z" />
<glyph unicode="C" horiz-adv-x="471" d="M424 144q-25 -38 -58 -75.5t-72.5 -61.5t-84.5 -28t-93 26q-39 24 -59.5 63.5t-28 85.5t-5 93.5t8.5 87.5q7 46 21.5 96.5t37 97.5t53.5 86t72 63q47 27 93 24.5t83 -26t61.5 -64.5t29.5 -91q2 -24 -7 -39.5t-24.5 -23.5t-34.5 -7.5t-36.5 8t-30 23t-14.5 39.5 q-3 26 -12 31.5t-21 -2.5t-26 -25t-26 -35t-21 -34t-11 -21q-14 -34 -26 -69t-19 -70q-3 -17 -6.5 -40t-2.5 -46.5t7.5 -45t21.5 -34.5q12 -10 28 0t31 27.5t27.5 36t16.5 24.5q13 20 31 27.5t36.5 6t35 -11t26.5 -24.5t10.5 -33.5t-12.5 -38.5z" />
<glyph unicode="D" horiz-adv-x="548" d="M200 693q74 12 139.5 -4.5t112.5 -56.5t71.5 -101.5t16.5 -140.5q-9 -86 -51 -158.5t-106 -127t-142.5 -88t-159.5 -39.5q-18 -2 -33 6.5t-25 22.5t-14 31t1 33q19 70 34 141.5t28.5 143.5t28 143.5t32.5 142.5q7 27 26 39.5t41 12.5zM384 364q12 39 9.5 74t-18.5 61 t-44.5 40.5t-67.5 13.5q-24 -101 -41.5 -202t-40.5 -203q71 29 125.5 85.5t77.5 130.5z" />
<glyph unicode="E" d="M401 71q-27 -18 -58.5 -34t-64.5 -25.5t-67 -10t-67 13.5q-56 23 -87.5 71t-40.5 107q-11 68 -0.5 137.5t39 133t74 116.5t105.5 89q32 19 69.5 30t74.5 12t71.5 -8t61 -30t42.5 -54.5t16 -80.5q0 -70 -31 -120.5t-80.5 -82.5t-111 -46t-121.5 -11q-18 1 -31 7.5 t-23 16.5q-2 -19 -2.5 -37.5t1.5 -36.5q4 -39 19.5 -53t36.5 -12t46 15.5t49 29.5q21 14 41.5 13.5t36.5 -11t26 -28.5t12 -38t-6.5 -39.5t-29.5 -33.5zM270 500q-15 -14 -27.5 -30t-24.5 -34h7q25 -1 58 2t62.5 14t48.5 31.5t17 54.5q-1 9 -4.5 16t-14.5 6q-33 0 -66 -18.5 t-56 -41.5z" />
<glyph unicode="F" horiz-adv-x="539" d="M475 701q23 -6 35 -21t15.5 -32.5t-1.5 -36t-17 -32.5t-30 -20t-41 0q-38 10 -68 7t-54.5 -17.5t-43.5 -38.5t-34 -54q9 0 17.5 -0.5t16.5 -0.5q26 -1 51.5 -1.5t51.5 -1.5q24 -1 39.5 -12.5t23.5 -28t8 -35.5t-8 -35t-23.5 -26.5t-39.5 -9.5q-22 1 -44 1.5t-44 0.5 q-17 1 -32.5 1h-32.5h-26q4 2 9.5 3.5t13.5 5.5q-15 -7 -27 -8v-1h3h1q-2 0 -2.5 -0.5t-1.5 -0.5q-8 -38 -13.5 -76t-10 -73t-8.5 -66.5t-8 -55.5q-7 -35 -32.5 -46.5t-52 -4t-45.5 31t-12 58.5q12 66 24.5 145.5t32 158t50 148.5t78 117.5t116.5 65.5t166 -9z" />
<glyph unicode="G" horiz-adv-x="510" d="M186 380q-11 -42 -22 -86.5t-9 -89.5q0 -13 0.5 -27t4.5 -25t14 -18t29 -5q21 2 40 13.5t33 25.5q15 14 28 29.5t20 35.5q-1 3 -1 7q-17 3 -33 0q-24 -2 -40 8t-24.5 26t-9.5 35.5t6.5 36t22.5 28.5t39 13q70 4 114.5 -23t61 -71t5.5 -97.5t-51 -101.5q-22 -26 -55 -49.5 t-70 -39t-76.5 -20.5t-75.5 4t-65 35t-46 74q-19 58 -18.5 126.5t15.5 136t41.5 130.5t58.5 111q25 39 62 63t77 33.5t80 3t72.5 -29t53 -61t21.5 -94.5q1 -24 -9.5 -39.5t-26.5 -23.5t-35 -8t-35.5 8t-28 23.5t-12.5 39.5q-1 29 -9 39.5t-20 8.5t-26.5 -13.5t-27.5 -24.5 t-22 -25.5t-11 -17.5q-25 -50 -40 -104z" />
<glyph unicode="H" horiz-adv-x="626" d="M493 677q17 31 45 35t51 -11t34.5 -43t-4.5 -59q-33 -63 -55.5 -132.5t-38.5 -141.5t-27.5 -145t-21.5 -142q-3 -23 -16.5 -38t-31 -22.5t-36.5 -7t-34 9t-24 24t-5 39.5l16 108t18 109q-39 -2 -78 -3.5t-78 -3.5q-25 -102 -45 -206q-6 -35 -31.5 -46t-52 -2.5t-45 32.5 t-12.5 59q27 145 66 286.5t89 280.5q12 33 40.5 43t55 1.5t42 -32t3.5 -56.5q-19 -53 -36 -105.5t-33 -106.5q37 2 73.5 4t73.5 3q18 70 41.5 137.5t56.5 131.5z" />
<glyph unicode="I" horiz-adv-x="288" d="M144 41q-4 -23 -17 -35.5t-30 -16t-35.5 1.5t-33 17.5t-22.5 31t-4 41.5q14 94 37 184.5t44 183.5q8 34 34 45.5t52.5 4t45 -31t10.5 -57.5q-21 -93 -44 -184t-37 -185zM248 600q-13 -15 -32.5 -19.5t-38 0.5t-33.5 18t-19 33q-3 15 -2 24t3 24q2 11 10 21.5t17 17.5l2 2 q22 21 52.5 21.5t52.5 -21.5q20 -20 21 -49t-18 -51q-1 -1 -1 -1.5t-1 -1.5q-2 -5 -5.5 -9t-7.5 -9zM269 654q0 -8 -1 -12q1 2 1 5t1 6z" />
<glyph unicode="J" horiz-adv-x="541" d="M212 -11q-29 -6 -57 0t-52 20t-43 35.5t-32 47.5q-16 31 -20.5 63t-1 64t13.5 64t23 62t38 34.5t47.5 -8.5t34 -39t-1.5 -56q-5 -12 -11.5 -35.5t-7.5 -48t7 -44.5t31 -24q18 -3 34 12t29.5 36.5t23 44t15.5 34.5q21 49 36.5 100.5t27.5 104t21.5 105.5t19.5 106 q4 22 16 33.5t28.5 15t33.5 -1.5t30.5 -16t21 -28.5t3.5 -38.5q-10 -53 -20 -106.5t-22 -106t-27 -104.5t-36 -102q-15 -35 -33.5 -71t-42.5 -67t-55 -53.5t-72 -31.5z" />
<glyph unicode="K" horiz-adv-x="543" d="M277 29q-10 63 -20.5 133t-33.5 133q-16 -63 -32.5 -124.5t-35.5 -123.5q-7 -22 -22 -34.5t-33.5 -15.5t-36.5 2t-31.5 16.5t-19.5 29.5t1 41q42 140 75 279.5t62 282.5q5 23 18.5 35.5t30.5 16t35.5 -1.5t32.5 -17t21.5 -30.5t3.5 -41.5q-3 -16 -6.5 -31.5t-6.5 -31.5 q35 26 64.5 57t54.5 72q12 20 30 28t36.5 6.5t34.5 -11.5t26 -25t11 -34t-11 -39q-39 -63 -87 -111t-106 -86q19 -39 32.5 -79.5t23.5 -83t17 -86t14 -86.5q4 -23 -4 -41.5t-22.5 -30.5t-33 -17.5t-35.5 -2t-30 16t-17 36.5z" />
<glyph unicode="L" horiz-adv-x="366" d="M267 131q24 -1 39.5 -12.5t23.5 -28t8 -35.5t-8 -35.5t-23.5 -27t-39.5 -9.5q-76 2 -126 23.5t-78.5 56.5t-38.5 81t-7 99t16 109.5t31.5 111.5t39 107t37.5 95q9 22 25.5 33.5t35 14.5t37 -2t31.5 -16.5t17.5 -29.5t-4.5 -40q-33 -82 -66.5 -165.5t-51.5 -171.5 q-8 -38 -8.5 -67t10 -49t34.5 -30.5t66 -11.5z" />
<glyph unicode="M" horiz-adv-x="868" d="M391 551q-18 -11 -32 -29q-40 -50 -68 -110t-49.5 -123.5t-38 -128.5t-34.5 -126q-10 -34 -37.5 -45t-54 -3.5t-43.5 30.5t-7 57q14 49 30.5 114t38 134.5t50 138t67 123t89 90.5t116.5 41q52 4 82.5 -14.5t44.5 -51.5q44 42 96 60.5t114 -0.5q59 -18 84 -65t27 -110.5 t-12.5 -136t-35.5 -141t-41.5 -126.5t-30.5 -92t-37.5 -45t-54 -3.5t-43.5 30.5t-7 57q3 10 14.5 51t26 96.5t29.5 117.5t24.5 113.5t10.5 84.5t-12 32q-25 -3 -47.5 -21.5t-42 -46t-35.5 -60.5t-29 -66t-22.5 -63t-14.5 -50q-6 -23 -21 -35.5t-32.5 -16t-36 2t-32.5 17.5 t-20 30t0 41q11 43 23.5 85.5t20.5 87.5q4 20 8.5 46.5t-1.5 47.5q-1 -2 -6 -6.5t-18 -12.5z" />
<glyph unicode="N" horiz-adv-x="624" d="M473 42q-9 -33 -34 -43.5t-50.5 -4t-42 28.5t-7.5 55q15 57 31.5 113.5t27.5 114.5q2 11 7 32t9.5 47t7 54t1 52.5t-8 43t-21.5 26.5q-37 18 -69.5 -7.5t-59.5 -76t-49 -117t-38 -130t-26 -114.5t-14 -72q-6 -33 -30 -44t-49 -4.5t-42.5 29t-11.5 55.5t15.5 82.5 t24.5 107t35.5 118.5t46.5 116.5t59 101.5t73 73t87.5 31.5t103.5 -23.5q53 -26 79 -72.5t32 -104.5t-2.5 -123t-23.5 -128t-32.5 -119.5t-28.5 -97.5z" />
<glyph unicode="O" horiz-adv-x="554" d="M309 707q72 3 120 -27t74.5 -81.5t32.5 -118t-6 -135.5t-40.5 -134.5t-71.5 -115t-99 -77.5t-123 -21q-56 6 -93 37t-56.5 78.5t-23.5 107t6.5 121.5t32.5 122.5t54.5 110.5t74 84.5t89.5 44.5q5 2 9 2h9q3 1 5.5 1.5t5.5 0.5zM213 158q19 -11 40.5 -0.5t42.5 36t39 61.5 t30 75t17 78t-0.5 70t-23.5 50.5t-51 19.5q-26 -8 -45 -30.5t-32 -50.5t-21 -57.5t-12 -52.5q-3 -15 -7 -44.5t-4.5 -60.5t5 -58t22.5 -36z" />
<glyph unicode="P" d="M368 714q43 -2 80 -18.5t63 -44.5t38.5 -65t7.5 -80q-6 -48 -25 -89.5t-49.5 -74t-71.5 -55t-91 -31.5q-35 -7 -57.5 11t-28.5 43.5t6 49.5t47 30q26 5 52 18t44.5 32.5t26 45t-1.5 54.5t-28 33.5t-40 -4.5t-41 -26.5t-30 -33.5q-32 -50 -54 -106t-36.5 -114.5 t-22.5 -118t-11 -116.5q-1 -22 -12.5 -37.5t-28 -22.5t-35.5 -7.5t-34.5 7.5t-25.5 22.5t-8 37.5q2 47 10.5 115.5t25 142.5t43 147.5t66.5 131t94.5 92t127.5 31.5z" />
<glyph unicode="Q" horiz-adv-x="596" d="M550 -22q24 1 38.5 -9.5t21 -26.5t4.5 -35t-11.5 -36t-26 -28.5t-40.5 -12.5q-46 -2 -87 18t-68 54q-13 16 -26 32.5t-29.5 30.5t-38 23t-51.5 9h-11q-28 -3 -55.5 5t-53.5 30q-55 45 -79 118t-21.5 154t30.5 161t78 139t120 88t157 8q22 -6 33 -20q6 -2 11.5 -5.5 t10.5 -8.5q45 -41 63 -98t16 -119.5t-20 -125.5t-45 -117q-12 -25 -29.5 -51t-40.5 -51q27 -11 42.5 -24.5t25.5 -28t17.5 -30t19.5 -28.5q11 -11 21 -13.5t24 -1.5zM346 558q-40 9 -75 -12.5t-60.5 -60t-41 -88t-18 -96.5t9.5 -86t41 -56q31 -19 60 -2.5t52.5 53t39 87 t21 101t-1 94t-27.5 66.5z" />
<glyph unicode="R" horiz-adv-x="640" d="M602 401q-17 -16 -38 -28.5t-41 -25.5t-38 -28t-28 -35q-14 -29 -4.5 -53t30.5 -44.5t47 -37t45 -28.5q20 -13 27 -31t4.5 -36t-13.5 -34t-27 -25t-35 -9.5t-39 12.5q-35 24 -71.5 52t-65 61.5t-44.5 73.5t-10 88q6 46 24.5 74.5t44 50t54.5 40.5t56 46q12 13 16 29.5 t0 30.5t-16.5 21.5t-33.5 2.5q-41 -10 -70.5 -29.5t-51.5 -47t-39 -61t-32 -70.5q-29 -74 -51.5 -150.5t-36.5 -155.5q-4 -23 -18 -37.5t-32 -21.5t-37 -5.5t-34 10.5t-23 25t-4 40q20 108 51 212.5t79 203.5q22 46 56.5 93t78.5 82.5t97 53.5t112 6q57 -11 96 -48t55 -84.5 t7 -97t-47 -85.5z" />
<glyph unicode="S" horiz-adv-x="535" d="M331 708q32 0 61 -9t52 -26.5t39 -43t22 -57.5q6 -35 -13 -58.5t-46 -31t-52 4t-31 46.5q-4 21 -18 26t-29 -2t-26.5 -21.5t-10.5 -32.5q1 -23 10 -43.5t20.5 -41t24 -40t22.5 -38.5q21 -41 33.5 -82t7.5 -87q-7 -57 -34 -95.5t-65 -58.5t-82 -21.5t-83.5 16t-70 54 t-42.5 91.5q-7 35 11.5 58.5t45 31t52 -4t33.5 -46.5q9 -42 28.5 -51t35.5 3t22.5 39.5t-9.5 59.5q-18 35 -41.5 73.5t-41.5 78.5t-24.5 82t9.5 84q11 30 29.5 56.5t43 45.5t54.5 30t63 11z" />
<glyph unicode="T" horiz-adv-x="482" d="M406 708q23 4 41 -3.5t29 -22t14.5 -33t-1.5 -35.5t-18.5 -30.5t-37.5 -17.5q-36 -7 -71.5 -9.5t-70.5 -1.5q-30 -127 -65.5 -253.5t-56.5 -254.5q-6 -35 -32 -53t-53.5 -18t-48 18t-14.5 53q22 131 57 258t67 256q-16 1 -31.5 1.5t-31.5 0.5q-24 0 -38.5 11.5t-21 27.5 t-5 35.5t11 35.5t26 26.5t40.5 10.5q39 0 77.5 -3.5t77.5 -5.5t78 -1.5t78 8.5z" />
<glyph unicode="U" horiz-adv-x="599" d="M440 646q7 23 22 35.5t33 15.5t36 -2t31.5 -17t19 -30.5t-1.5 -41.5q-14 -44 -35.5 -110.5t-43.5 -145.5q-12 -59 -10 -123.5t28 -123.5q14 -32 0.5 -59.5t-38 -41.5t-52 -9.5t-41.5 36.5q-8 14 -12.5 29t-9.5 30q-44 -50 -97.5 -73.5t-120.5 -6.5q-56 15 -85 56.5 t-38.5 98t-3 122.5t20.5 130.5t32 122t32 96.5q12 34 40 45t54 3.5t41.5 -30.5t3.5 -57q-4 -12 -14.5 -50.5t-21.5 -90t-21 -107t-13 -101t3.5 -72.5t27.5 -21q32 10 56.5 38.5t43 64.5t32 73.5t24.5 65.5q2 8 7.5 24t9.5 27q16 50 31 99.5t30 100.5z" />
<glyph unicode="V" horiz-adv-x="551" d="M384 688q15 32 42 36.5t51 -9.5t36.5 -42t-1.5 -60q-68 -151 -144.5 -296t-167.5 -284q-15 -23 -37.5 -30.5t-43.5 -1.5t-37 23.5t-19 46.5q-12 137 -19.5 278.5t-9.5 282.5q0 36 22.5 53.5t50 17.5t51 -17.5t23.5 -53.5q1 -80 6.5 -158.5t10.5 -158.5q51 91 97 184 t89 189z" />
<glyph unicode="W" horiz-adv-x="801" d="M643 697q16 32 43.5 36.5t51.5 -9.5t36 -41.5t-4 -59.5q-37 -76 -70.5 -153.5l-67 -155t-68.5 -154t-75 -151.5q-11 -21 -31 -29.5t-41 -6t-38.5 16t-23.5 36.5q-12 48 -22 95t-20 95q-28 -49 -54.5 -98.5t-54.5 -99.5q-15 -26 -37 -33t-43.5 0t-38 25.5t-18.5 44.5 q-14 148 -26 294t-13 295q0 36 22.5 53.5t50 17.5t51 -17.5t23.5 -53.5q1 -87 5.5 -172t11.5 -171q23 39 46.5 77t49.5 74q12 17 33 26t42 8t38 -13t22 -38q7 -42 14 -83t15 -83q49 108 94.5 215t96.5 213z" />
<glyph unicode="X" horiz-adv-x="557" d="M416 690q24 27 52 24t47.5 -22.5t24 -49t-19.5 -56.5q-49 -56 -97.5 -111t-96.5 -112q23 -71 45 -141.5t42 -142.5q10 -35 -7.5 -58t-44 -30.5t-53.5 3.5t-37 46q-14 48 -28 95.5t-29 95.5q-45 -54 -89 -107t-88 -108q-22 -28 -49.5 -25.5t-47 22t-24.5 50t17 57.5 q56 70 112.5 138.5t114.5 137.5l-75 231q-11 34 6 57t43.5 30.5t54 -3t38.5 -44.5q11 -35 22.5 -70.5t23.5 -70.5q35 42 71 82.5t72 81.5z" />
<glyph unicode="Y" horiz-adv-x="566" d="M426 664q11 33 38 42.5t53.5 1t42.5 -33t6 -58.5q-15 -45 -32.5 -103t-40 -120t-49.5 -125t-60.5 -117t-73.5 -96t-89 -63t-107 -17t-126 42q-21 11 -28.5 28t-5.5 34.5t12.5 33t26.5 25.5t35.5 11t40.5 -10q36 -20 68.5 -16t61.5 25.5t54 57t46 79.5q-9 -2 -17.5 -2.5 t-18.5 -0.5q-45 0 -75.5 18t-49.5 47t-29 66.5t-13 77t-1.5 78t5.5 69.5q2 23 15 38.5t30 22.5t36 6t34.5 -10t24.5 -25t7 -40q-1 -8 -3.5 -28.5t-4 -46t-1 -51t5.5 -44t15.5 -26t28.5 4.5q28 18 49.5 44t38 56t29 62t21.5 63z" />
<glyph unicode="Z" horiz-adv-x="577" d="M472 710q23 14 48.5 8.5t43.5 -23t23 -42.5t-12 -49q-79 -109 -163.5 -213.5t-167.5 -213.5q24 -5 46.5 -11.5t44 -9t43 1.5t44.5 20q20 14 38.5 14t33.5 -9.5t25 -26.5t11.5 -36.5t-6 -39t-26.5 -33.5q-41 -29 -84.5 -42t-92.5 -4q-29 6 -54.5 14t-50 12t-50 0.5 t-52.5 -20.5q-23 -15 -48 -9.5t-42.5 23t-23 42.5t11.5 49q76 114 160.5 219.5t169.5 214.5q-20 6 -37 12.5t-33 8t-31.5 -4.5t-32.5 -25q-16 -18 -35 -22.5t-36.5 1.5t-31.5 20t-20 32t-3 38t20 38q37 40 83.5 64.5t102.5 14.5q27 -6 49.5 -14.5t44 -13.5t43 -3t47.5 18z " />
<glyph unicode="a" horiz-adv-x="566" d="M378 288q-41 -3 -81.5 -5.5t-81.5 -8.5q-20 -57 -36.5 -114t-30.5 -115q-5 -22 -19 -34.5t-30.5 -15.5t-34.5 1.5t-31.5 16t-20 29.5t-1.5 40q25 106 58 210t84 198q12 22 29.5 49t39 54t46 50.5t52.5 39.5t58 20.5t61 -6.5q55 -20 80.5 -63.5t31.5 -100.5t-2.5 -123 t-22.5 -129.5t-28 -120t-18 -95.5q-4 -34 -28.5 -51t-51 -17t-47 17t-16.5 51q7 56 18.5 111t22.5 112zM361 535q-13 -12 -24.5 -25t-21.5 -28q-11 -14 -19.5 -29.5t-17.5 -31.5q32 2 63.5 4t63.5 7q5 35 4.5 68.5t-12.5 56.5q1 -3 -1 -3.5t-7 -2t-12 -5t-16 -11.5z" />
<glyph unicode="b" horiz-adv-x="503" d="M168 694q45 8 98.5 5.5t100.5 -20.5t81 -54t40 -96q7 -59 -16.5 -102t-65.5 -73q2 -2 4 -4.5t4 -5.5q30 -44 30.5 -94t-15.5 -97q-22 -56 -62 -93t-90.5 -54t-107.5 -13.5t-111 27.5q-28 13 -36 36q-20 23 -14 60q29 133 53 265.5t59 263.5q5 17 17.5 31.5t30.5 17.5z M349 516q-2 16 -12.5 25.5t-25 14.5t-31.5 6t-33 0q-9 -34 -16.5 -68t-15.5 -68h2q23 4 47 11.5t43.5 18t31 25.5t10.5 35zM270 283q-17 3 -33 3q-17 -5 -33 -6q-5 -1 -9 -1h-9q-7 -37 -14 -73.5t-15 -73.5q49 -8 87 16.5t55 69.5q13 30 -2 53q-1 1 -7 5q-5 2 -8 3.5 t-12 3.5z" />
<glyph unicode="c" horiz-adv-x="471" d="M424 144q-25 -38 -58 -75.5t-72.5 -61.5t-84.5 -28t-93 26q-39 24 -59.5 63.5t-28 85.5t-5 93.5t8.5 87.5q7 46 21.5 96.5t37 97.5t53.5 86t72 63q47 27 93 24.5t83 -26t61.5 -64.5t29.5 -91q2 -24 -7 -39.5t-24.5 -23.5t-34.5 -7.5t-36.5 8t-30 23t-14.5 39.5 q-3 26 -12 31.5t-21 -2.5t-26 -25t-26 -35t-21 -34t-11 -21q-14 -34 -26 -69t-19 -70q-3 -17 -6.5 -40t-2.5 -46.5t7.5 -45t21.5 -34.5q12 -10 28 0t31 27.5t27.5 36t16.5 24.5q13 20 31 27.5t36.5 6t35 -11t26.5 -24.5t10.5 -33.5t-12.5 -38.5z" />
<glyph unicode="d" horiz-adv-x="548" d="M200 693q74 12 139.5 -4.5t112.5 -56.5t71.5 -101.5t16.5 -140.5q-9 -86 -51 -158.5t-106 -127t-142.5 -88t-159.5 -39.5q-18 -2 -33 6.5t-25 22.5t-14 31t1 33q19 70 34 141.5t28.5 143.5t28 143.5t32.5 142.5q7 27 26 39.5t41 12.5zM384 364q12 39 9.5 74t-18.5 61 t-44.5 40.5t-67.5 13.5q-24 -101 -41.5 -202t-40.5 -203q71 29 125.5 85.5t77.5 130.5z" />
<glyph unicode="e" d="M401 71q-27 -18 -58.5 -34t-64.5 -25.5t-67 -10t-67 13.5q-56 23 -87.5 71t-40.5 107q-11 68 -0.5 137.5t39 133t74 116.5t105.5 89q32 19 69.5 30t74.5 12t71.5 -8t61 -30t42.5 -54.5t16 -80.5q0 -70 -31 -120.5t-80.5 -82.5t-111 -46t-121.5 -11q-18 1 -31 7.5 t-23 16.5q-2 -19 -2.5 -37.5t1.5 -36.5q4 -39 19.5 -53t36.5 -12t46 15.5t49 29.5q21 14 41.5 13.5t36.5 -11t26 -28.5t12 -38t-6.5 -39.5t-29.5 -33.5zM270 500q-15 -14 -27.5 -30t-24.5 -34h7q25 -1 58 2t62.5 14t48.5 31.5t17 54.5q-1 9 -4.5 16t-14.5 6q-33 0 -66 -18.5 t-56 -41.5z" />
<glyph unicode="f" horiz-adv-x="539" d="M475 701q23 -6 35 -21t15.5 -32.5t-1.5 -36t-17 -32.5t-30 -20t-41 0q-38 10 -68 7t-54.5 -17.5t-43.5 -38.5t-34 -54q9 0 17.5 -0.5t16.5 -0.5q26 -1 51.5 -1.5t51.5 -1.5q24 -1 39.5 -12.5t23.5 -28t8 -35.5t-8 -35t-23.5 -26.5t-39.5 -9.5q-22 1 -44 1.5t-44 0.5 q-17 1 -32.5 1h-32.5h-26q4 2 9.5 3.5t13.5 5.5q-15 -7 -27 -8v-1h3h1q-2 0 -2.5 -0.5t-1.5 -0.5q-8 -38 -13.5 -76t-10 -73t-8.5 -66.5t-8 -55.5q-7 -35 -32.5 -46.5t-52 -4t-45.5 31t-12 58.5q12 66 24.5 145.5t32 158t50 148.5t78 117.5t116.5 65.5t166 -9z" />
<glyph unicode="g" horiz-adv-x="510" d="M186 380q-11 -42 -22 -86.5t-9 -89.5q0 -13 0.5 -27t4.5 -25t14 -18t29 -5q21 2 40 13.5t33 25.5q15 14 28 29.5t20 35.5q-1 3 -1 7q-17 3 -33 0q-24 -2 -40 8t-24.5 26t-9.5 35.5t6.5 36t22.5 28.5t39 13q70 4 114.5 -23t61 -71t5.5 -97.5t-51 -101.5q-22 -26 -55 -49.5 t-70 -39t-76.5 -20.5t-75.5 4t-65 35t-46 74q-19 58 -18.5 126.5t15.5 136t41.5 130.5t58.5 111q25 39 62 63t77 33.5t80 3t72.5 -29t53 -61t21.5 -94.5q1 -24 -9.5 -39.5t-26.5 -23.5t-35 -8t-35.5 8t-28 23.5t-12.5 39.5q-1 29 -9 39.5t-20 8.5t-26.5 -13.5t-27.5 -24.5 t-22 -25.5t-11 -17.5q-25 -50 -40 -104z" />
<glyph unicode="h" horiz-adv-x="626" d="M493 677q17 31 45 35t51 -11t34.5 -43t-4.5 -59q-33 -63 -55.5 -132.5t-38.5 -141.5t-27.5 -145t-21.5 -142q-3 -23 -16.5 -38t-31 -22.5t-36.5 -7t-34 9t-24 24t-5 39.5l16 108t18 109q-39 -2 -78 -3.5t-78 -3.5q-25 -102 -45 -206q-6 -35 -31.5 -46t-52 -2.5t-45 32.5 t-12.5 59q27 145 66 286.5t89 280.5q12 33 40.5 43t55 1.5t42 -32t3.5 -56.5q-19 -53 -36 -105.5t-33 -106.5q37 2 73.5 4t73.5 3q18 70 41.5 137.5t56.5 131.5z" />
<glyph unicode="i" horiz-adv-x="288" d="M144 41q-4 -23 -17 -35.5t-30 -16t-35.5 1.5t-33 17.5t-22.5 31t-4 41.5q14 94 37 184.5t44 183.5q8 34 34 45.5t52.5 4t45 -31t10.5 -57.5q-21 -93 -44 -184t-37 -185zM248 600q-13 -15 -32.5 -19.5t-38 0.5t-33.5 18t-19 33q-3 15 -2 24t3 24q2 11 10 21.5t17 17.5l2 2 q22 21 52.5 21.5t52.5 -21.5q20 -20 21 -49t-18 -51q-1 -1 -1 -1.5t-1 -1.5q-2 -5 -5.5 -9t-7.5 -9zM269 654q0 -8 -1 -12q1 2 1 5t1 6z" />
<glyph unicode="j" horiz-adv-x="541" d="M212 -11q-29 -6 -57 0t-52 20t-43 35.5t-32 47.5q-16 31 -20.5 63t-1 64t13.5 64t23 62t38 34.5t47.5 -8.5t34 -39t-1.5 -56q-5 -12 -11.5 -35.5t-7.5 -48t7 -44.5t31 -24q18 -3 34 12t29.5 36.5t23 44t15.5 34.5q21 49 36.5 100.5t27.5 104t21.5 105.5t19.5 106 q4 22 16 33.5t28.5 15t33.5 -1.5t30.5 -16t21 -28.5t3.5 -38.5q-10 -53 -20 -106.5t-22 -106t-27 -104.5t-36 -102q-15 -35 -33.5 -71t-42.5 -67t-55 -53.5t-72 -31.5z" />
<glyph unicode="k" horiz-adv-x="543" d="M277 29q-10 63 -20.5 133t-33.5 133q-16 -63 -32.5 -124.5t-35.5 -123.5q-7 -22 -22 -34.5t-33.5 -15.5t-36.5 2t-31.5 16.5t-19.5 29.5t1 41q42 140 75 279.5t62 282.5q5 23 18.5 35.5t30.5 16t35.5 -1.5t32.5 -17t21.5 -30.5t3.5 -41.5q-3 -16 -6.5 -31.5t-6.5 -31.5 q35 26 64.5 57t54.5 72q12 20 30 28t36.5 6.5t34.5 -11.5t26 -25t11 -34t-11 -39q-39 -63 -87 -111t-106 -86q19 -39 32.5 -79.5t23.5 -83t17 -86t14 -86.5q4 -23 -4 -41.5t-22.5 -30.5t-33 -17.5t-35.5 -2t-30 16t-17 36.5z" />
<glyph unicode="l" horiz-adv-x="366" d="M267 131q24 -1 39.5 -12.5t23.5 -28t8 -35.5t-8 -35.5t-23.5 -27t-39.5 -9.5q-76 2 -126 23.5t-78.5 56.5t-38.5 81t-7 99t16 109.5t31.5 111.5t39 107t37.5 95q9 22 25.5 33.5t35 14.5t37 -2t31.5 -16.5t17.5 -29.5t-4.5 -40q-33 -82 -66.5 -165.5t-51.5 -171.5 q-8 -38 -8.5 -67t10 -49t34.5 -30.5t66 -11.5z" />
<glyph unicode="m" horiz-adv-x="868" d="M391 551q-18 -11 -32 -29q-40 -50 -68 -110t-49.5 -123.5t-38 -128.5t-34.5 -126q-10 -34 -37.5 -45t-54 -3.5t-43.5 30.5t-7 57q14 49 30.5 114t38 134.5t50 138t67 123t89 90.5t116.5 41q52 4 82.5 -14.5t44.5 -51.5q44 42 96 60.5t114 -0.5q59 -18 84 -65t27 -110.5 t-12.5 -136t-35.5 -141t-41.5 -126.5t-30.5 -92t-37.5 -45t-54 -3.5t-43.5 30.5t-7 57q3 10 14.5 51t26 96.5t29.5 117.5t24.5 113.5t10.5 84.5t-12 32q-25 -3 -47.5 -21.5t-42 -46t-35.5 -60.5t-29 -66t-22.5 -63t-14.5 -50q-6 -23 -21 -35.5t-32.5 -16t-36 2t-32.5 17.5 t-20 30t0 41q11 43 23.5 85.5t20.5 87.5q4 20 8.5 46.5t-1.5 47.5q-1 -2 -6 -6.5t-18 -12.5z" />
<glyph unicode="n" horiz-adv-x="624" d="M473 42q-9 -33 -34 -43.5t-50.5 -4t-42 28.5t-7.5 55q15 57 31.5 113.5t27.5 114.5q2 11 7 32t9.5 47t7 54t1 52.5t-8 43t-21.5 26.5q-37 18 -69.5 -7.5t-59.5 -76t-49 -117t-38 -130t-26 -114.5t-14 -72q-6 -33 -30 -44t-49 -4.5t-42.5 29t-11.5 55.5t15.5 82.5 t24.5 107t35.5 118.5t46.5 116.5t59 101.5t73 73t87.5 31.5t103.5 -23.5q53 -26 79 -72.5t32 -104.5t-2.5 -123t-23.5 -128t-32.5 -119.5t-28.5 -97.5z" />
<glyph unicode="o" horiz-adv-x="554" d="M309 707q72 3 120 -27t74.5 -81.5t32.5 -118t-6 -135.5t-40.5 -134.5t-71.5 -115t-99 -77.5t-123 -21q-56 6 -93 37t-56.5 78.5t-23.5 107t6.5 121.5t32.5 122.5t54.5 110.5t74 84.5t89.5 44.5q5 2 9 2h9q3 1 5.5 1.5t5.5 0.5zM213 158q19 -11 40.5 -0.5t42.5 36t39 61.5 t30 75t17 78t-0.5 70t-23.5 50.5t-51 19.5q-26 -8 -45 -30.5t-32 -50.5t-21 -57.5t-12 -52.5q-3 -15 -7 -44.5t-4.5 -60.5t5 -58t22.5 -36z" />
<glyph unicode="p" d="M368 714q43 -2 80 -18.5t63 -44.5t38.5 -65t7.5 -80q-6 -48 -25 -89.5t-49.5 -74t-71.5 -55t-91 -31.5q-35 -7 -57.5 11t-28.5 43.5t6 49.5t47 30q26 5 52 18t44.5 32.5t26 45t-1.5 54.5t-28 33.5t-40 -4.5t-41 -26.5t-30 -33.5q-32 -50 -54 -106t-36.5 -114.5 t-22.5 -118t-11 -116.5q-1 -22 -12.5 -37.5t-28 -22.5t-35.5 -7.5t-34.5 7.5t-25.5 22.5t-8 37.5q2 47 10.5 115.5t25 142.5t43 147.5t66.5 131t94.5 92t127.5 31.5z" />
<glyph unicode="q" horiz-adv-x="596" d="M550 -22q24 1 38.5 -9.5t21 -26.5t4.5 -35t-11.5 -36t-26 -28.5t-40.5 -12.5q-46 -2 -87 18t-68 54q-13 16 -26 32.5t-29.5 30.5t-38 23t-51.5 9h-11q-28 -3 -55.5 5t-53.5 30q-55 45 -79 118t-21.5 154t30.5 161t78 139t120 88t157 8q22 -6 33 -20q6 -2 11.5 -5.5 t10.5 -8.5q45 -41 63 -98t16 -119.5t-20 -125.5t-45 -117q-12 -25 -29.5 -51t-40.5 -51q27 -11 42.5 -24.5t25.5 -28t17.5 -30t19.5 -28.5q11 -11 21 -13.5t24 -1.5zM346 558q-40 9 -75 -12.5t-60.5 -60t-41 -88t-18 -96.5t9.5 -86t41 -56q31 -19 60 -2.5t52.5 53t39 87 t21 101t-1 94t-27.5 66.5z" />
<glyph unicode="r" horiz-adv-x="640" d="M602 401q-17 -16 -38 -28.5t-41 -25.5t-38 -28t-28 -35q-14 -29 -4.5 -53t30.5 -44.5t47 -37t45 -28.5q20 -13 27 -31t4.5 -36t-13.5 -34t-27 -25t-35 -9.5t-39 12.5q-35 24 -71.5 52t-65 61.5t-44.5 73.5t-10 88q6 46 24.5 74.5t44 50t54.5 40.5t56 46q12 13 16 29.5 t0 30.5t-16.5 21.5t-33.5 2.5q-41 -10 -70.5 -29.5t-51.5 -47t-39 -61t-32 -70.5q-29 -74 -51.5 -150.5t-36.5 -155.5q-4 -23 -18 -37.5t-32 -21.5t-37 -5.5t-34 10.5t-23 25t-4 40q20 108 51 212.5t79 203.5q22 46 56.5 93t78.5 82.5t97 53.5t112 6q57 -11 96 -48t55 -84.5 t7 -97t-47 -85.5z" />
<glyph unicode="s" horiz-adv-x="535" d="M331 708q32 0 61 -9t52 -26.5t39 -43t22 -57.5q6 -35 -13 -58.5t-46 -31t-52 4t-31 46.5q-4 21 -18 26t-29 -2t-26.5 -21.5t-10.5 -32.5q1 -23 10 -43.5t20.5 -41t24 -40t22.5 -38.5q21 -41 33.5 -82t7.5 -87q-7 -57 -34 -95.5t-65 -58.5t-82 -21.5t-83.5 16t-70 54 t-42.5 91.5q-7 35 11.5 58.5t45 31t52 -4t33.5 -46.5q9 -42 28.5 -51t35.5 3t22.5 39.5t-9.5 59.5q-18 35 -41.5 73.5t-41.5 78.5t-24.5 82t9.5 84q11 30 29.5 56.5t43 45.5t54.5 30t63 11z" />
<glyph unicode="t" horiz-adv-x="482" d="M406 708q23 4 41 -3.5t29 -22t14.5 -33t-1.5 -35.5t-18.5 -30.5t-37.5 -17.5q-36 -7 -71.5 -9.5t-70.5 -1.5q-30 -127 -65.5 -253.5t-56.5 -254.5q-6 -35 -32 -53t-53.5 -18t-48 18t-14.5 53q22 131 57 258t67 256q-16 1 -31.5 1.5t-31.5 0.5q-24 0 -38.5 11.5t-21 27.5 t-5 35.5t11 35.5t26 26.5t40.5 10.5q39 0 77.5 -3.5t77.5 -5.5t78 -1.5t78 8.5z" />
<glyph unicode="u" horiz-adv-x="599" d="M440 646q7 23 22 35.5t33 15.5t36 -2t31.5 -17t19 -30.5t-1.5 -41.5q-14 -44 -35.5 -110.5t-43.5 -145.5q-12 -59 -10 -123.5t28 -123.5q14 -32 0.5 -59.5t-38 -41.5t-52 -9.5t-41.5 36.5q-8 14 -12.5 29t-9.5 30q-44 -50 -97.5 -73.5t-120.5 -6.5q-56 15 -85 56.5 t-38.5 98t-3 122.5t20.5 130.5t32 122t32 96.5q12 34 40 45t54 3.5t41.5 -30.5t3.5 -57q-4 -12 -14.5 -50.5t-21.5 -90t-21 -107t-13 -101t3.5 -72.5t27.5 -21q32 10 56.5 38.5t43 64.5t32 73.5t24.5 65.5q2 8 7.5 24t9.5 27q16 50 31 99.5t30 100.5z" />
<glyph unicode="v" horiz-adv-x="551" d="M384 688q15 32 42 36.5t51 -9.5t36.5 -42t-1.5 -60q-68 -151 -144.5 -296t-167.5 -284q-15 -23 -37.5 -30.5t-43.5 -1.5t-37 23.5t-19 46.5q-12 137 -19.5 278.5t-9.5 282.5q0 36 22.5 53.5t50 17.5t51 -17.5t23.5 -53.5q1 -80 6.5 -158.5t10.5 -158.5q51 91 97 184 t89 189z" />
<glyph unicode="w" horiz-adv-x="801" d="M643 697q16 32 43.5 36.5t51.5 -9.5t36 -41.5t-4 -59.5q-37 -76 -70.5 -153.5l-67 -155t-68.5 -154t-75 -151.5q-11 -21 -31 -29.5t-41 -6t-38.5 16t-23.5 36.5q-12 48 -22 95t-20 95q-28 -49 -54.5 -98.5t-54.5 -99.5q-15 -26 -37 -33t-43.5 0t-38 25.5t-18.5 44.5 q-14 148 -26 294t-13 295q0 36 22.5 53.5t50 17.5t51 -17.5t23.5 -53.5q1 -87 5.5 -172t11.5 -171q23 39 46.5 77t49.5 74q12 17 33 26t42 8t38 -13t22 -38q7 -42 14 -83t15 -83q49 108 94.5 215t96.5 213z" />
<glyph unicode="x" horiz-adv-x="557" d="M416 690q24 27 52 24t47.5 -22.5t24 -49t-19.5 -56.5q-49 -56 -97.5 -111t-96.5 -112q23 -71 45 -141.5t42 -142.5q10 -35 -7.5 -58t-44 -30.5t-53.5 3.5t-37 46q-14 48 -28 95.5t-29 95.5q-45 -54 -89 -107t-88 -108q-22 -28 -49.5 -25.5t-47 22t-24.5 50t17 57.5 q56 70 112.5 138.5t114.5 137.5l-75 231q-11 34 6 57t43.5 30.5t54 -3t38.5 -44.5q11 -35 22.5 -70.5t23.5 -70.5q35 42 71 82.5t72 81.5z" />
<glyph unicode="y" horiz-adv-x="566" d="M426 664q11 33 38 42.5t53.5 1t42.5 -33t6 -58.5q-15 -45 -32.5 -103t-40 -120t-49.5 -125t-60.5 -117t-73.5 -96t-89 -63t-107 -17t-126 42q-21 11 -28.5 28t-5.5 34.5t12.5 33t26.5 25.5t35.5 11t40.5 -10q36 -20 68.5 -16t61.5 25.5t54 57t46 79.5q-9 -2 -17.5 -2.5 t-18.5 -0.5q-45 0 -75.5 18t-49.5 47t-29 66.5t-13 77t-1.5 78t5.5 69.5q2 23 15 38.5t30 22.5t36 6t34.5 -10t24.5 -25t7 -40q-1 -8 -3.5 -28.5t-4 -46t-1 -51t5.5 -44t15.5 -26t28.5 4.5q28 18 49.5 44t38 56t29 62t21.5 63z" />
<glyph unicode="z" horiz-adv-x="577" d="M472 710q23 14 48.5 8.5t43.5 -23t23 -42.5t-12 -49q-79 -109 -163.5 -213.5t-167.5 -213.5q24 -5 46.5 -11.5t44 -9t43 1.5t44.5 20q20 14 38.5 14t33.5 -9.5t25 -26.5t11.5 -36.5t-6 -39t-26.5 -33.5q-41 -29 -84.5 -42t-92.5 -4q-29 6 -54.5 14t-50 12t-50 0.5 t-52.5 -20.5q-23 -15 -48 -9.5t-42.5 23t-23 42.5t11.5 49q76 114 160.5 219.5t169.5 214.5q-20 6 -37 12.5t-33 8t-31.5 -4.5t-32.5 -25q-16 -18 -35 -22.5t-36.5 1.5t-31.5 20t-20 32t-3 38t20 38q37 40 83.5 64.5t102.5 14.5q27 -6 49.5 -14.5t44 -13.5t43 -3t47.5 18z " />
<glyph unicode="&#xc4;" horiz-adv-x="590" d="M347 759q-28 0 -42 18.5t-14 40.5t14 40.5t42 18.5t42.5 -18.5t14.5 -40.5t-14.5 -40.5t-42.5 -18.5zM479 858q17 17 42 17t42 -17t17 -41.5t-17 -41.5l-7 -7q-17 -17 -41.5 -17t-41.5 17t-17 42t17 42zM454 687q56 -20 82.5 -65t33 -104.5t-2.5 -127t-23 -133.5 t-28.5 -124.5t-18.5 -98.5q-3 -23 -15.5 -38.5t-30 -23.5t-36.5 -8t-34.5 7.5t-25 23t-6.5 39.5q7 59 19.5 116t23.5 114q-42 -3 -84.5 -5t-84.5 -9q-41 -116 -69 -237q-8 -35 -34 -46t-52.5 -3.5t-45 31t-10.5 58.5q26 108 59.5 215.5t87.5 205.5q19 34 49 78t68.5 80 t84 54t93.5 1zM375 521q-14 -13 -26 -26t-23 -29q-10 -16 -19.5 -31.5t-17.5 -32.5l66 4t65 7q5 37 4.5 71.5t-12.5 57.5q1 -3 -1.5 -3.5t-8 -1.5t-12.5 -4.5t-15 -11.5z" />
<glyph unicode="&#xc5;" horiz-adv-x="593" d="M457 687q56 -20 82.5 -65t33 -104.5t-2.5 -127t-23 -133.5t-28.5 -124.5t-18.5 -98.5q-3 -23 -15.5 -38.5t-30 -23.5t-36.5 -8t-34.5 7.5t-25 23t-6.5 39.5q7 59 19.5 116t23.5 114q-42 -3 -84.5 -5t-84.5 -9q-41 -116 -69 -237q-8 -35 -34 -46t-52.5 -3.5t-45 31 t-10.5 58.5q26 108 59.5 215.5t87.5 205.5q19 34 49 78t68.5 80t84 54t93.5 1zM378 521q-14 -13 -26 -26t-23 -29q-10 -16 -19.5 -31.5t-17.5 -32.5l66 4t65 7q5 37 4.5 71.5t-12.5 57.5q1 -3 -1.5 -3.5t-8 -1.5t-12.5 -4.5t-15 -11.5zM381 819q5 35 32.5 60.5t63.5 25.5 q18 0 33 -7t25.5 -18.5t16 -27t3.5 -33.5q-3 -18 -11.5 -33t-21 -26.5t-29 -18t-34.5 -6.5t-33.5 6.5t-26 18t-15.5 26.5t-3 33zM433 819q-4 -16 6 -24.5t24 -8.5q15 0 25.5 8.5t12.5 24.5q5 14 -5.5 23t-24.5 9q-15 0 -25.5 -9t-12.5 -23z" />
<glyph unicode="&#xd6;" horiz-adv-x="553" d="M287 672q71 3 120.5 -27t78.5 -81.5t38.5 -118t1 -135.5t-33.5 -134.5t-65.5 -115t-95 -77.5t-121.5 -21q-57 6 -95.5 37t-60.5 78.5t-28.5 107t0 121.5t26 122.5t49.5 110.5t69.5 84.5t86.5 44.5q5 1 9.5 1.5t9.5 0.5q3 1 5.5 1t5.5 1zM219 122q20 -11 40.5 0t40 36 t35.5 61.5t26.5 75.5t13.5 78t-4.5 70t-26.5 50t-52 19q-26 -8 -43.5 -30t-29 -50t-17.5 -57.5t-9 -52.5q-2 -15 -5 -44.5t-1.5 -61t8.5 -58t24 -36.5zM264 761q-29 0 -43 18.5t-14 40.5t14 40.5t43 18.5q28 0 42.5 -18.5t14.5 -40.5t-14.5 -40.5t-42.5 -18.5zM473 770 q-17 -17 -41.5 -17t-41.5 17t-17 42t17 42l6 6q17 17 41.5 17t41.5 -17t17 -41.5t-17 -41.5q-2 -2 -3 -3.5t-3 -3.5z" />
<glyph unicode="&#xe4;" horiz-adv-x="590" d="M347 759q-28 0 -42 18.5t-14 40.5t14 40.5t42 18.5t42.5 -18.5t14.5 -40.5t-14.5 -40.5t-42.5 -18.5zM479 858q17 17 42 17t42 -17t17 -41.5t-17 -41.5l-7 -7q-17 -17 -41.5 -17t-41.5 17t-17 42t17 42zM454 687q56 -20 82.5 -65t33 -104.5t-2.5 -127t-23 -133.5 t-28.5 -124.5t-18.5 -98.5q-3 -23 -15.5 -38.5t-30 -23.5t-36.5 -8t-34.5 7.5t-25 23t-6.5 39.5q7 59 19.5 116t23.5 114q-42 -3 -84.5 -5t-84.5 -9q-41 -116 -69 -237q-8 -35 -34 -46t-52.5 -3.5t-45 31t-10.5 58.5q26 108 59.5 215.5t87.5 205.5q19 34 49 78t68.5 80 t84 54t93.5 1zM375 521q-14 -13 -26 -26t-23 -29q-10 -16 -19.5 -31.5t-17.5 -32.5l66 4t65 7q5 37 4.5 71.5t-12.5 57.5q1 -3 -1.5 -3.5t-8 -1.5t-12.5 -4.5t-15 -11.5z" />
<glyph unicode="&#xe5;" horiz-adv-x="593" d="M457 687q56 -20 82.5 -65t33 -104.5t-2.5 -127t-23 -133.5t-28.5 -124.5t-18.5 -98.5q-3 -23 -15.5 -38.5t-30 -23.5t-36.5 -8t-34.5 7.5t-25 23t-6.5 39.5q7 59 19.5 116t23.5 114q-42 -3 -84.5 -5t-84.5 -9q-41 -116 -69 -237q-8 -35 -34 -46t-52.5 -3.5t-45 31 t-10.5 58.5q26 108 59.5 215.5t87.5 205.5q19 34 49 78t68.5 80t84 54t93.5 1zM378 521q-14 -13 -26 -26t-23 -29q-10 -16 -19.5 -31.5t-17.5 -32.5l66 4t65 7q5 37 4.5 71.5t-12.5 57.5q1 -3 -1.5 -3.5t-8 -1.5t-12.5 -4.5t-15 -11.5zM381 819q5 35 32.5 60.5t63.5 25.5 q18 0 33 -7t25.5 -18.5t16 -27t3.5 -33.5q-3 -18 -11.5 -33t-21 -26.5t-29 -18t-34.5 -6.5t-33.5 6.5t-26 18t-15.5 26.5t-3 33zM433 819q-4 -16 6 -24.5t24 -8.5q15 0 25.5 8.5t12.5 24.5q5 14 -5.5 23t-24.5 9q-15 0 -25.5 -9t-12.5 -23z" />
<glyph unicode="&#xf6;" horiz-adv-x="553" d="M287 672q71 3 120.5 -27t78.5 -81.5t38.5 -118t1 -135.5t-33.5 -134.5t-65.5 -115t-95 -77.5t-121.5 -21q-57 6 -95.5 37t-60.5 78.5t-28.5 107t0 121.5t26 122.5t49.5 110.5t69.5 84.5t86.5 44.5q5 1 9.5 1.5t9.5 0.5q3 1 5.5 1t5.5 1zM219 122q20 -11 40.5 0t40 36 t35.5 61.5t26.5 75.5t13.5 78t-4.5 70t-26.5 50t-52 19q-26 -8 -43.5 -30t-29 -50t-17.5 -57.5t-9 -52.5q-2 -15 -5 -44.5t-1.5 -61t8.5 -58t24 -36.5zM264 761q-29 0 -43 18.5t-14 40.5t14 40.5t43 18.5q28 0 42.5 -18.5t14.5 -40.5t-14.5 -40.5t-42.5 -18.5zM473 770 q-17 -17 -41.5 -17t-41.5 17t-17 42t17 42l6 6q17 17 41.5 17t41.5 -17t17 -41.5t-17 -41.5q-2 -2 -3 -3.5t-3 -3.5z" />
<glyph unicode="&#x25fc;" horiz-adv-x="720" d="M0 720h720v-720h-720v720z" />
</font>
</defs>
</svg>
